<svg xmlns="http://www.w3.org/2000/svg" viewBox="0 0 140 140" width="140" height="140">
  <circle cx="70" cy="70" r="58" fill="#0a1628" stroke="#0ea5e9" stroke-width="5"/>
  <path d="M34 54 C43 44, 52 44, 61 54 C70 64, 79 64, 88 54 C94 49, 100 47, 106 54" fill="none" stroke="#0ea5e9" stroke-width="3.5" stroke-linecap="round"/>
  <path d="M34 70 C43 60, 52 60, 61 70 C70 80, 79 80, 88 70 C94 65, 100 63, 106 70" fill="none" stroke="#0ea5e9" stroke-width="2.5" stroke-linecap="round" opacity="0.6"/>
  <path d="M34 86 C43 76, 52 76, 61 86 C70 96, 79 96, 88 86 C94 81, 100 79, 106 86" fill="none" stroke="#0ea5e9" stroke-width="1.5" stroke-linecap="round" opacity="0.3"/>
</svg>
